<svg id="Capa_1" enable-background="new 0 0 497 497" height="512" viewBox="0 0 497 497" width="512" xmlns="http://www.w3.org/2000/svg"><g><g><g><path d="m438.212 342.474c-.843 1.259-1.581 2.557-2.224 3.883l-349.339-233.989c.981-1.099 1.901-2.276 2.744-3.534 9.868-14.733 5.925-34.677-8.809-44.545-14.733-9.868-34.677-5.924-44.545 8.809-6.491 9.691-7.005 21.635-2.404 31.485-10.859-.505-21.709 4.516-28.2 14.207-9.868 14.733-5.925 34.677 8.809 44.545 14.733 9.868 34.677 5.925 44.545-8.809.843-1.259 1.581-2.557 2.224-3.883l349.339 233.988c-.981 1.1-1.901 2.276-2.744 3.535-9.868 14.733-5.925 34.677 8.809 44.545 14.733 9.868 34.677 5.925 44.545-8.809 6.491-9.691 7.005-21.636 2.404-31.485 10.859.505 21.709-4.516 28.2-14.207 9.868-14.733 5.925-34.677-8.809-44.545-14.733-9.868-34.677-5.924-44.545 8.809z" fill="#d9d9d9"/></g></g><g><g><path d="m58.788 342.474c.843 1.259 1.581 2.557 2.224 3.883l349.339-233.988c-.981-1.099-1.901-2.276-2.744-3.534-9.868-14.733-5.925-34.677 8.809-44.545 14.733-9.868 34.677-5.924 44.545 8.809 6.491 9.691 7.005 21.635 2.404 31.485 10.859-.505 21.709 4.516 28.2 14.207 9.868 14.733 5.925 34.677-8.809 44.545-14.733 9.868-34.677 5.925-44.545-8.809-.843-1.259-1.581-2.557-2.224-3.883l-349.338 233.987c.981 1.1 1.901 2.276 2.744 3.535 9.868 14.733 5.925 34.677-8.809 44.545-14.733 9.868-34.677 5.925-44.545-8.809-6.491-9.691-7.005-21.636-2.404-31.485-10.859.505-21.709-4.516-28.2-14.207-9.868-14.733-5.925-34.677 8.809-44.545 14.732-9.868 34.676-5.924 44.544 8.809z" fill="#d9d9d9"/></g></g><g><g><path d="m386.265 237.491c0-77.124-62.24-139.711-139.231-140.272-77.576-.566-141.322 62.695-141.321 140.273 0 52.12 28.427 97.599 70.62 121.784v34.248c0 12.145 9.846 21.991 21.99 21.991h95.33c12.145 0 21.991-9.845 21.991-21.991v-34.248c42.194-24.185 70.621-69.664 70.621-121.785z" fill="#f7f7f7"/></g></g><g><g><path d="m247.033 97.219c-5.391-.04-10.712.241-15.953.801 70.375 7.528 125.184 67.098 125.184 139.471 0 49.75-25.9 93.449-64.951 118.354-3.549 2.264-5.67 6.207-5.67 10.417v27.262c0 12.145-9.846 21.99-21.991 21.99h30c12.145 0 21.991-9.845 21.991-21.99v-34.248c42.194-24.185 70.621-69.665 70.621-121.785.001-77.123-62.239-139.71-139.231-140.272z" fill="#e8e8e8"/></g></g><g><g><ellipse cx="188.046" cy="264.711" fill="#d9d9d9" rx="37.262" ry="37.262" transform="matrix(.707 -.707 .707 .707 -132.102 210.501)"/></g></g><g><g><ellipse cx="302.863" cy="264.711" fill="#d9d9d9" rx="37.262" ry="37.262" transform="matrix(.924 -.383 .383 .924 -78.247 136.051)"/></g></g><g><g><path d="m234.979 330.371c-1.92 0-3.839-.732-5.304-2.197-2.929-2.929-2.929-7.678.001-10.606l11.108-11.108c1.406-1.407 3.314-2.197 5.303-2.197h.033c2.001.009 3.915.817 5.317 2.244l10.911 11.108c2.902 2.955 2.86 7.704-.095 10.607-2.953 2.902-7.701 2.861-10.606-.095l-5.608-5.71-5.758 5.757c-1.464 1.464-3.384 2.197-5.302 2.197z" fill="#d9d9d9"/></g></g><g fill="#d9d9d9"><path d="m219.079 415.515v-27.712c0-4.142-3.357-7.5-7.5-7.5s-7.5 3.358-7.5 7.5v27.712z"/><path d="m280.397 380.302c-4.143 0-7.5 3.358-7.5 7.5v27.712h15v-27.712c0-4.142-3.357-7.5-7.5-7.5z"/><path d="m253.488 387.802c0-4.142-3.357-7.5-7.5-7.5s-7.5 3.358-7.5 7.5v27.712h15z"/></g></g></svg>